<svg width="96" height="28" viewBox="0 0 96 28" fill="none" xmlns="http://www.w3.org/2000/svg">
<rect x="0.388889" y="0.388889" width="27.2222" height="27.2222" rx="7.61111" fill="#00A67E"/>
<rect x="0.388889" y="0.388889" width="27.2222" height="27.2222" rx="7.61111" stroke="#00A67E" stroke-width="0.777778"/>
<path d="M6.22217 10.7793V16.2792C7.68055 16.2792 9.07922 16.8584 10.1106 17.8895C11.142 18.9206 11.7216 20.3191 11.7221 21.7775H17.222C17.2215 18.8604 16.0624 16.063 13.9996 14.0005C11.9368 11.938 9.13921 10.7793 6.22217 10.7793H6.22217Z" fill="white"/>
<path d="M21.778 17.2234V11.7235C20.3196 11.7231 18.9211 11.1435 17.89 10.1121C16.8589 9.08069 16.2797 7.68201 16.2797 6.22363L10.7798 6.22363C10.7798 9.14068 11.9385 11.9383 14.001 14.0011C16.0635 16.0639 18.8609 17.223 21.778 17.2234Z" fill="white"/>
<path d="M41.1477 20V8.36364H45.6023C46.4432 8.36364 47.142 8.49621 47.6989 8.76136C48.2595 9.02273 48.678 9.38068 48.9545 9.83523C49.2348 10.2898 49.375 10.8049 49.375 11.3807C49.375 11.8542 49.2841 12.2595 49.1023 12.5966C48.9205 12.9299 48.6761 13.2008 48.3693 13.4091C48.0625 13.6174 47.7197 13.767 47.3409 13.858V13.9716C47.7538 13.9943 48.1496 14.1212 48.5284 14.3523C48.911 14.5795 49.2235 14.9015 49.4659 15.3182C49.7083 15.7348 49.8295 16.2386 49.8295 16.8295C49.8295 17.4318 49.6837 17.9735 49.392 18.4545C49.1004 18.9318 48.661 19.3087 48.0739 19.5852C47.4867 19.8617 46.7481 20 45.858 20H41.1477ZM43.2557 18.2386H45.5227C46.2879 18.2386 46.839 18.0928 47.1761 17.8011C47.517 17.5057 47.6875 17.1269 47.6875 16.6648C47.6875 16.3201 47.6023 16.0095 47.4318 15.733C47.2614 15.4527 47.0189 15.233 46.7045 15.0739C46.3902 14.911 46.0152 14.8295 45.5795 14.8295H43.2557V18.2386ZM43.2557 13.3125H45.3409C45.7045 13.3125 46.0322 13.2462 46.3239 13.1136C46.6155 12.9773 46.8447 12.786 47.0114 12.5398C47.1818 12.2898 47.267 11.9943 47.267 11.6534C47.267 11.2027 47.108 10.8314 46.7898 10.5398C46.4754 10.2481 46.0076 10.1023 45.3864 10.1023H43.2557V13.3125ZM56.7349 16.3295V11.2727H58.7918V20H56.7974V18.4489H56.7065C56.5096 18.9375 56.1857 19.3371 55.7349 19.6477C55.288 19.9583 54.7368 20.1136 54.0815 20.1136C53.5096 20.1136 53.0039 19.9867 52.5645 19.733C52.1289 19.4754 51.788 19.1023 51.5418 18.6136C51.2955 18.1212 51.1724 17.5265 51.1724 16.8295V11.2727H53.2293V16.5114C53.2293 17.0644 53.3808 17.5038 53.6838 17.8295C53.9868 18.1553 54.3846 18.3182 54.877 18.3182C55.18 18.3182 55.4736 18.2443 55.7577 18.0966C56.0418 17.9489 56.2747 17.7292 56.4565 17.4375C56.6421 17.142 56.7349 16.7727 56.7349 16.3295ZM60.5068 20V11.2727H62.5636V20H60.5068ZM61.5409 10.0341C61.2152 10.0341 60.9348 9.92614 60.7 9.71023C60.4652 9.49053 60.3477 9.22727 60.3477 8.92045C60.3477 8.60985 60.4652 8.34659 60.7 8.13068C60.9348 7.91098 61.2152 7.80114 61.5409 7.80114C61.8705 7.80114 62.1508 7.91098 62.3818 8.13068C62.6167 8.34659 62.7341 8.60985 62.7341 8.92045C62.7341 9.22727 62.6167 9.49053 62.3818 9.71023C62.1508 9.92614 61.8705 10.0341 61.5409 10.0341ZM66.3355 8.36364V20H64.2787V8.36364H66.3355ZM71.2892 20.1534C70.6036 20.1534 69.99 19.9773 69.4483 19.625C68.9066 19.2727 68.4786 18.7614 68.1642 18.0909C67.8498 17.4205 67.6926 16.6061 67.6926 15.6477C67.6926 14.678 67.8517 13.8598 68.1699 13.1932C68.4919 12.5227 68.9256 12.017 69.471 11.6761C70.0165 11.3314 70.6244 11.1591 71.2949 11.1591C71.8062 11.1591 72.2267 11.2462 72.5562 11.4205C72.8858 11.5909 73.1472 11.7973 73.3403 12.0398C73.5335 12.2784 73.6831 12.5038 73.7892 12.7159H73.8744V8.36364H75.9369V20H73.9142V18.625H73.7892C73.6831 18.8371 73.5297 19.0625 73.329 19.3011C73.1282 19.536 72.8631 19.7367 72.5335 19.9034C72.204 20.0701 71.7892 20.1534 71.2892 20.1534ZM71.8631 18.4659C72.2987 18.4659 72.6699 18.3485 72.9767 18.1136C73.2835 17.875 73.5165 17.5436 73.6756 17.1193C73.8347 16.6951 73.9142 16.2008 73.9142 15.6364C73.9142 15.072 73.8347 14.5814 73.6756 14.1648C73.5203 13.7481 73.2892 13.4242 72.9824 13.1932C72.6794 12.9621 72.3062 12.8466 71.8631 12.8466C71.4047 12.8466 71.0222 12.9659 70.7153 13.2045C70.4085 13.4432 70.1775 13.7727 70.0222 14.1932C69.8669 14.6136 69.7892 15.0947 69.7892 15.6364C69.7892 16.1818 69.8669 16.6686 70.0222 17.0966C70.1812 17.5208 70.4142 17.8561 70.721 18.1023C71.0316 18.3447 71.4123 18.4659 71.8631 18.4659ZM77.7287 20V11.2727H79.7855V20H77.7287ZM78.7628 10.0341C78.437 10.0341 78.1567 9.92614 77.9219 9.71023C77.687 9.49053 77.5696 9.22727 77.5696 8.92045C77.5696 8.60985 77.687 8.34659 77.9219 8.13068C78.1567 7.91098 78.437 7.80114 78.7628 7.80114C79.0923 7.80114 79.3726 7.91098 79.6037 8.13068C79.8385 8.34659 79.956 8.60985 79.956 8.92045C79.956 9.22727 79.8385 9.49053 79.6037 9.71023C79.3726 9.92614 79.0923 10.0341 78.7628 10.0341ZM85.921 11.2727V12.8636H80.7619V11.2727H85.921ZM82.0517 20V10.4489C82.0517 9.86174 82.1729 9.37311 82.4153 8.98295C82.6616 8.5928 82.9911 8.30114 83.404 8.10795C83.8169 7.91477 84.2752 7.81818 84.779 7.81818C85.135 7.81818 85.4513 7.84659 85.7278 7.90341C86.0044 7.96023 86.2089 8.01136 86.3415 8.05682L85.9324 9.64773C85.8453 9.62121 85.7354 9.5947 85.6028 9.56818C85.4703 9.53788 85.3225 9.52273 85.1597 9.52273C84.7771 9.52273 84.5062 9.61553 84.3472 9.80114C84.1919 9.98295 84.1142 10.2443 84.1142 10.5852V20H82.0517ZM88.4102 23.2727C88.1299 23.2727 87.8705 23.25 87.6318 23.2045C87.397 23.1629 87.2095 23.1136 87.0693 23.0568L87.5466 21.4545C87.8458 21.5417 88.1129 21.5833 88.3477 21.5795C88.5826 21.5758 88.789 21.5019 88.967 21.358C89.1489 21.2178 89.3023 20.983 89.4273 20.6534L89.6034 20.1818L86.4386 11.2727H88.6205L90.6318 17.8636H90.7227L92.7398 11.2727H94.9273L91.433 21.0568C91.2701 21.5189 91.0542 21.9148 90.7852 22.2443C90.5163 22.5777 90.1867 22.8314 89.7966 23.0057C89.4102 23.1837 88.9481 23.2727 88.4102 23.2727Z" fill="#222834"/>
</svg>
