<svg xmlns="http://www.w3.org/2000/svg" viewBox="0 0 57.2 57.2"><defs><style>.cls-1{fill:#e6f4f0;}.cls-2,.cls-3{fill:none;stroke:#048766;stroke-linejoin:round;stroke-width:2px;}.cls-3{stroke-linecap:round;}</style></defs><g id="Layer_2" data-name="Layer 2"><g id="Layer_1-2" data-name="Layer 1"><path class="cls-1" d="M44,55.69h0a79.13,79.13,0,0,1-30.82,0h0A14.85,14.85,0,0,1,1.52,44h0a78.75,78.75,0,0,1,0-30.82h0A14.85,14.85,0,0,1,13.19,1.52h0A78.75,78.75,0,0,1,44,1.52h0A14.85,14.85,0,0,1,55.69,13.19h0a79.13,79.13,0,0,1,0,30.82h0A14.85,14.85,0,0,1,44,55.69Z"/><polygon class="cls-2" points="31.92 36.43 13.29 36.43 13.29 23.02 22.61 16.07 31.92 23.02 31.92 36.43"/><polyline class="cls-2" points="28.94 36.44 31.93 36.44 43.91 36.44 43.91 25.65 36.42 20.06 31.93 23.42"/><path class="cls-2" d="M20.91,27.46h0A2.59,2.59,0,0,1,23.49,30v6.39a0,0,0,0,1,0,0H18.32a0,0,0,0,1,0,0V30a2.59,2.59,0,0,1,2.59-2.59Z"/><line class="cls-3" x1="21.73" y1="41.14" x2="35.48" y2="41.14"/></g></g></svg>