<svg xmlns="http://www.w3.org/2000/svg" viewBox="0 0 33.72 33.72"><defs><style>.cls-1{fill:#e6f4f0;}.cls-2,.cls-3{fill:none;stroke:#048766;stroke-linecap:round;stroke-linejoin:round;}.cls-3{stroke-width:0.75px;}.cls-4{fill:#048766;}</style></defs><g id="Layer_2" data-name="Layer 2"><g id="Layer_1-2" data-name="Layer 1"><rect class="cls-1" width="33.72" height="33.72" rx="7"/><circle class="cls-2" cx="16.86" cy="14.35" r="2.82"/><path class="cls-2" d="M22.25,21.24v0L22,19.74a3.07,3.07,0,0,0-3-2.57H14.77a3.07,3.07,0,0,0-3,2.57l-.25,1.5"/><path class="cls-2" d="M19.31,22.92a8,8,0,0,0,2.94-1.68,8.08,8.08,0,1,0-7.84,1.68"/><rect class="cls-2" x="14.41" y="21.49" width="4.9" height="3.55" rx="1"/><path class="cls-2" d="M15.58,21.49v-1a1.28,1.28,0,0,1,1.28-1.28h0a1.28,1.28,0,0,1,1.28,1.28v1"/><line class="cls-3" x1="16.86" y1="23.29" x2="16.86" y2="23.9"/><circle class="cls-4" cx="16.86" cy="22.95" r="0.59"/><circle class="cls-2" cx="7.21" cy="22.09" r="1.45"/><circle class="cls-2" cx="11.48" cy="25.13" r="1.45"/><circle class="cls-2" cx="22.25" cy="25.13" r="1.45"/><circle class="cls-2" cx="26.52" cy="22.09" r="1.45"/><path class="cls-2" d="M7.21,20.64V18.17a1,1,0,0,1,1-1H9"/><path class="cls-2" d="M26.52,20.64V18.17a1,1,0,0,0-1-1h-.8"/><line class="cls-2" x1="11.48" y1="23.68" x2="11.48" y2="20.71"/><line class="cls-2" x1="22.25" y1="23.68" x2="22.25" y2="20.87"/></g></g></svg>