<svg xmlns="http://www.w3.org/2000/svg" viewBox="0 0 57.2 57.2"><defs><style>.cls-1{fill:#e6f4f0;}.cls-2{fill:none;stroke:#048766;stroke-linecap:round;stroke-linejoin:round;stroke-width:2px;}</style></defs><g id="Layer_2" data-name="Layer 2"><g id="Layer_1-2" data-name="Layer 1"><path class="cls-1" d="M44,55.69h0a79.13,79.13,0,0,1-30.82,0h0A14.85,14.85,0,0,1,1.52,44h0a78.75,78.75,0,0,1,0-30.82h0A14.85,14.85,0,0,1,13.19,1.52h0A78.75,78.75,0,0,1,44,1.52h0A14.85,14.85,0,0,1,55.69,13.19h0a79.13,79.13,0,0,1,0,30.82h0A14.85,14.85,0,0,1,44,55.69Z"/><path class="cls-2" d="M41,25.16a13.4,13.4,0,0,1,.76,4.49A13.7,13.7,0,1,1,28.07,16a13.52,13.52,0,0,1,6.75,1.79"/><polyline class="cls-2" points="16.68 37.21 23.36 30.53 26.86 34.04 32.34 28.58"/><polyline class="cls-2" points="31.87 33.41 32.34 28.57 27.5 29.07"/><path class="cls-2" d="M36,25.73S33,24.49,33,21.77c0-4.76,3.88-3.85,4.32-7.91,0,0,3.32,1.81,2.14,6.2a3.49,3.49,0,0,0,2.11-2S45,22,40.37,25.73A5.42,5.42,0,0,1,37,22.44S35.82,23,36,25.73Z"/></g></g></svg>