<svg xmlns="http://www.w3.org/2000/svg" viewBox="0 0 57.2 57.2"><defs><style>.cls-1{fill:#e6f4f0;}.cls-2{fill:none;stroke:#048766;stroke-linecap:round;stroke-linejoin:round;stroke-width:2px;}</style></defs><g id="Layer_2" data-name="Layer 2"><g id="Layer_1-2" data-name="Layer 1"><path class="cls-1" d="M44,55.69h0a79.13,79.13,0,0,1-30.82,0h0A14.85,14.85,0,0,1,1.52,44h0a78.75,78.75,0,0,1,0-30.82h0A14.85,14.85,0,0,1,13.19,1.52h0A78.75,78.75,0,0,1,44,1.52h0A14.85,14.85,0,0,1,55.69,13.19h0a79.13,79.13,0,0,1,0,30.82h0A14.85,14.85,0,0,1,44,55.69Z"/><line class="cls-2" x1="18.45" y1="36.4" x2="32.23" y2="36.4"/><line class="cls-2" x1="13.89" y1="36.4" x2="13.89" y2="36.4"/><line class="cls-2" x1="18.45" y1="30.72" x2="32.23" y2="30.72"/><line class="cls-2" x1="13.89" y1="30.72" x2="13.89" y2="30.72"/><line class="cls-2" x1="18.45" y1="25.04" x2="32.23" y2="25.04"/><line class="cls-2" x1="13.89" y1="25.04" x2="13.89" y2="25.04"/><circle class="cls-2" cx="32.23" cy="27.51" r="8.89"/><polyline class="cls-2" points="43.32 38.59 38.51 33.8 38.51 33.78"/></g></g></svg>