<svg xmlns="http://www.w3.org/2000/svg" viewBox="0 0 33.72 33.72"><defs><style>.cls-1{fill:#e6f4f0;}.cls-2{fill:none;stroke:#048766;stroke-linecap:round;stroke-linejoin:round;}</style></defs><g id="Layer_2" data-name="Layer 2"><g id="Layer_1-2" data-name="Layer 1"><rect class="cls-1" width="33.72" height="33.72" rx="7"/><path class="cls-2" d="M15.21,23.13H12.64A3.1,3.1,0,0,1,9.55,20V14.64a3.1,3.1,0,0,1,1.25-2.49l3.9-2.91a3.11,3.11,0,0,1,3.69,0l3.9,2.91a3.13,3.13,0,0,1,1.25,2.49V20a3.09,3.09,0,0,1-.81,2.08"/><path class="cls-2" d="M16.86,25.09,15,22.89a1.3,1.3,0,0,1,.16-1.83,1.33,1.33,0,0,1,.84-.3,1.29,1.29,0,0,1,1,.46l.93,1.12V17.09a1.31,1.31,0,0,1,1.3-1.3,1.28,1.28,0,0,1,.92.39,1.24,1.24,0,0,1,.38.91v4.26a4.68,4.68,0,0,1,1.82.51,3.4,3.4,0,0,1,1.81,3.23"/><rect class="cls-2" x="12.21" y="15.27" width="2.77" height="2.77"/></g></g></svg>